<svg width="500" height="500" viewBox="0 0 500 500" fill="none" xmlns="http://www.w3.org/2000/svg">
<path d="M500 382.4H0V382.65H500V382.4Z" fill="#EBEBEB"/>
<path d="M449.9 398.49H416.78V398.74H449.9V398.49Z" fill="#EBEBEB"/>
<path d="M331.22 401.21H322.53V401.46H331.22V401.21Z" fill="#EBEBEB"/>
<path d="M415.78 389.21H396.59V389.46H415.78V389.21Z" fill="#EBEBEB"/>
<path d="M95.65 390.89H52.46V391.14H95.65V390.89Z" fill="#EBEBEB"/>
<path d="M110.89 390.89H104.56V391.14H110.89V390.89Z" fill="#EBEBEB"/>
<path d="M225.15 395.11H131.47V395.36H225.15V395.11Z" fill="#EBEBEB"/>
<path d="M237 337.8H43.91C42.3973 337.797 40.9475 337.195 39.8788 336.124C38.8102 335.054 38.21 333.603 38.21 332.09V60.66C38.2231 59.156 38.8292 57.718 39.8964 56.6582C40.9637 55.5985 42.4059 55.0026 43.91 55H237C238.514 55 239.967 55.6016 241.038 56.6724C242.108 57.7433 242.71 59.1956 242.71 60.71V332.09C242.71 333.604 242.108 335.057 241.038 336.128C239.967 337.198 238.514 337.8 237 337.8ZM43.91 55.2C42.4636 55.2026 41.0774 55.7791 40.0556 56.8027C39.0338 57.8264 38.46 59.2136 38.46 60.66V332.09C38.46 333.536 39.0338 334.924 40.0556 335.947C41.0774 336.971 42.4636 337.547 43.91 337.55H237C238.447 337.547 239.834 336.971 240.858 335.948C241.881 334.924 242.457 333.537 242.46 332.09V60.66C242.457 59.2127 241.881 57.8255 240.858 56.8021C239.834 55.7787 238.447 55.2026 237 55.2H43.91Z" fill="#EBEBEB"/>
<path d="M453.31 337.8H260.21C258.696 337.797 257.246 337.195 256.175 336.125C255.105 335.054 254.503 333.604 254.5 332.09V60.66C254.516 59.1551 255.124 57.7171 256.193 56.6576C257.262 55.5981 258.705 55.0025 260.21 55H453.31C454.812 55.0052 456.252 55.6022 457.317 56.6617C458.382 57.7212 458.987 59.1578 459 60.66V332.09C459 333.601 458.401 335.05 457.335 336.121C456.268 337.191 454.821 337.795 453.31 337.8ZM260.21 55.2C258.763 55.2026 257.375 55.7787 256.352 56.8021C255.329 57.8255 254.753 59.2127 254.75 60.66V332.09C254.753 333.537 255.329 334.924 256.352 335.948C257.375 336.971 258.763 337.547 260.21 337.55H453.31C454.757 337.547 456.145 336.971 457.168 335.948C458.191 334.924 458.767 333.537 458.77 332.09V60.66C458.767 59.2127 458.191 57.8255 457.168 56.8021C456.145 55.7787 454.757 55.2026 453.31 55.2H260.21Z" fill="#EBEBEB"/>
<path d="M156.52 292.52L142.67 304.1L162.4 332.78L178.16 323.98C186.608 332.094 196.511 338.54 207.35 342.98L205.75 360.91L240 367.22L244.91 349.9C256.602 349.633 268.139 347.156 278.91 342.6L290.49 356.45L319.17 336.72L310.39 321C318.506 312.558 324.952 302.657 329.39 291.82L347.31 293.42L353.64 259.19L336.32 254.27C336.046 242.578 333.569 231.044 329.02 220.27L342.87 208.69L323.14 180.02L307.37 188.81C298.925 180.697 289.025 174.251 278.19 169.81L279.79 151.88L245.56 145.56L240.65 162.87C228.959 163.148 217.425 165.624 206.65 170.17L195 156.26L166.34 176L175.13 191.76C167.017 200.208 160.571 210.112 156.13 220.95L138.2 219.35L131.88 253.58L149.19 258.49C149.468 270.194 151.955 281.74 156.52 292.52ZM196.43 247.79C198.124 238.626 202.497 230.17 208.997 223.491C215.497 216.812 223.832 212.211 232.946 210.269C242.061 208.327 251.547 209.132 260.205 212.581C268.863 216.031 276.303 221.97 281.585 229.648C286.867 237.325 289.754 246.397 289.881 255.716C290.007 265.034 287.367 274.181 282.295 282C277.223 289.818 269.947 295.957 261.386 299.64C252.825 303.322 243.364 304.384 234.2 302.69C221.911 300.418 211.028 293.358 203.945 283.062C196.862 272.767 194.158 260.079 196.43 247.79Z" fill="#F0F0F0"/>
<path d="M387.38 274.83L398.2 276.83L399.75 271.36C403.45 271.271 407.1 270.487 410.51 269.05L414.17 273.43L423.24 267.19L420.46 262.19C423.025 259.524 425.061 256.395 426.46 252.97L432.13 253.47L434.13 242.66L428.65 241.1C428.568 237.399 427.785 233.748 426.34 230.34L430.72 226.68L424.48 217.62L419.48 220.4C416.809 217.841 413.682 215.806 410.26 214.4L410.76 208.74L399.94 206.74L398.39 212.21C394.69 212.3 391.041 213.084 387.63 214.52L384 210.14L374.93 216.38L377.71 221.38C375.145 224.046 373.109 227.175 371.71 230.6L366.04 230.1L364.04 240.91L369.51 242.47C369.596 246.17 370.38 249.821 371.82 253.23L367.44 256.89L373.68 265.95L378.68 263.17C381.35 265.735 384.482 267.771 387.91 269.17L387.38 274.83ZM384.43 239.08C384.964 236.181 386.346 233.506 388.4 231.393C390.455 229.279 393.09 227.823 395.973 227.207C398.856 226.592 401.856 226.846 404.595 227.936C407.333 229.026 409.687 230.904 411.358 233.332C413.029 235.76 413.942 238.63 413.982 241.577C414.022 244.524 413.187 247.417 411.583 249.89C409.978 252.362 407.676 254.303 404.969 255.468C402.261 256.632 399.268 256.967 396.37 256.43C392.488 255.708 389.051 253.476 386.813 250.224C384.574 246.971 383.717 242.964 384.43 239.08Z" fill="#F0F0F0"/>
<path d="M83.7 305.64L91.94 307.17L93.13 303C95.9457 302.928 98.7233 302.331 101.32 301.24L104.11 304.57L111.02 299.82L108.9 296C110.85 293.975 112.401 291.6 113.47 289L117.79 289.38L119.31 281.14L115.14 280C115.078 277.18 114.481 274.397 113.38 271.8L116.72 269.01L111.96 262.11L108.17 264.23C106.143 262.28 103.769 260.727 101.17 259.65L101.56 255.34L93.31 253.81L92.13 257.98C89.311 258.052 86.5301 258.649 83.93 259.74L81.15 256.41L74.24 261.16L76.36 264.96C74.4088 266.984 72.8582 269.359 71.79 271.96L67.47 271.58L65.95 279.82L70.09 281C70.152 283.82 70.7493 286.603 71.85 289.2L68.51 292L73.26 298.9L77.06 296.79C79.0884 298.736 81.4624 300.286 84.06 301.36L83.7 305.64ZM81.46 278.41C81.869 276.205 82.9226 274.171 84.4875 272.565C86.0524 270.959 88.0584 269.853 90.2518 269.386C92.4453 268.92 94.7277 269.115 96.8106 269.945C98.8935 270.776 100.683 272.206 101.954 274.054C103.224 275.901 103.919 278.084 103.949 280.327C103.979 282.569 103.343 284.77 102.123 286.651C100.902 288.532 99.1513 290.009 97.0914 290.895C95.0315 291.782 92.7551 292.037 90.55 291.63C87.5922 291.081 84.9733 289.38 83.2689 286.901C81.5644 284.422 80.9138 281.368 81.46 278.41Z" fill="#F0F0F0"/>
<path d="M230.85 122L237.09 123.15L238 120C240.136 119.957 242.244 119.506 244.21 118.67L246.32 121.2L251.54 117.6L249.94 114.73C251.417 113.19 252.591 111.385 253.4 109.41L256.66 109.7L257.81 103.47L254.66 102.57C254.608 100.438 254.156 98.3355 253.33 96.37L255.85 94.26L252.26 89.04L249.39 90.64C247.85 89.163 246.045 87.9892 244.07 87.18L244.36 83.92L238.12 82.76L237.23 85.92C235.097 85.9618 232.992 86.4134 231.03 87.25L228.92 84.72L223.69 88.32L225.3 91.19C223.82 92.7282 222.646 94.5335 221.84 96.51L218.57 96.22L217.42 102.45L220.57 103.35C220.621 105.482 221.072 107.585 221.9 109.55L219.38 111.66L222.98 116.88L225.85 115.28C227.386 116.758 229.187 117.932 231.16 118.74L230.85 122ZM229.16 101.39C229.469 99.7217 230.266 98.1824 231.449 96.9668C232.633 95.7511 234.151 94.9137 235.81 94.5604C237.47 94.2071 239.197 94.3538 240.773 94.9819C242.349 95.61 243.704 96.6913 244.665 98.0892C245.627 99.487 246.153 101.139 246.176 102.835C246.199 104.532 245.719 106.197 244.795 107.621C243.872 109.044 242.548 110.162 240.989 110.833C239.431 111.504 237.709 111.698 236.04 111.39C233.805 110.977 231.826 109.694 230.536 107.823C229.246 105.952 228.751 103.646 229.16 101.41V101.39Z" fill="#F0F0F0"/>
<path d="M334.49 172.19L338.65 172.95L339.24 170.85C340.664 170.816 342.068 170.514 343.38 169.96L344.79 171.65L348.27 169.25L347.2 167.33C348.186 166.306 348.97 165.105 349.51 163.79L351.69 163.98L352.46 159.82L350.35 159.22C350.319 157.8 350.02 156.399 349.47 155.09L351.15 153.68L348.75 150.2L346.84 151.27C345.811 150.286 344.607 149.503 343.29 148.96L343.48 146.78L339.32 146.01L338.73 148.12C337.307 148.15 335.902 148.449 334.59 149L333.18 147.32L329.7 149.72L330.77 151.63C329.786 152.659 329.003 153.863 328.46 155.18L326.28 154.99L325.52 159.14L327.62 159.74C327.649 161.164 327.951 162.57 328.51 163.88L326.82 165.28L329.22 168.77L331.14 167.7C332.164 168.686 333.365 169.47 334.68 170.01L334.49 172.19ZM333.36 158.44C333.565 157.325 334.096 156.296 334.886 155.483C335.676 154.67 336.69 154.109 337.799 153.873C338.907 153.636 340.061 153.733 341.115 154.152C342.168 154.572 343.073 155.294 343.716 156.228C344.359 157.162 344.71 158.265 344.725 159.399C344.74 160.533 344.419 161.645 343.802 162.596C343.184 163.547 342.299 164.293 341.257 164.741C340.216 165.188 339.065 165.317 337.95 165.11C336.457 164.833 335.136 163.975 334.275 162.725C333.415 161.474 333.085 159.933 333.36 158.44Z" fill="#F0F0F0"/>
<path d="M142.75 122.07L146.91 122.84L147.5 120.74C148.923 120.701 150.327 120.399 151.64 119.85L153.05 121.53L156.53 119.13L155.46 117.22C156.446 116.192 157.23 114.988 157.77 113.67L159.95 113.87L160.72 109.71L158.61 109.11C158.579 107.687 158.28 106.283 157.73 104.97L159.41 103.57L157.01 100.08L155.09 101.15C154.068 100.164 152.866 99.3829 151.55 98.85L151.74 96.67L147.58 95.9L147 98C145.576 98.0338 144.172 98.3358 142.86 98.89L141.45 97.21L138 99.6L139.07 101.52C138.084 102.548 137.3 103.752 136.76 105.07L134.58 104.87L133.82 109.03L135.92 109.63C135.949 111.051 136.251 112.453 136.81 113.76L135.12 115.17L137.52 118.66L139.44 117.59C140.465 118.573 141.666 119.353 142.98 119.89L142.75 122.07ZM141.62 108.33C141.825 107.215 142.356 106.186 143.146 105.373C143.936 104.56 144.95 103.999 146.059 103.763C147.167 103.526 148.321 103.623 149.375 104.042C150.428 104.462 151.333 105.184 151.976 106.118C152.619 107.052 152.97 108.155 152.985 109.289C153 110.423 152.679 111.535 152.062 112.486C151.444 113.437 150.559 114.183 149.517 114.631C148.476 115.078 147.325 115.207 146.21 115C144.718 114.723 143.396 113.865 142.535 112.615C141.675 111.364 141.346 109.823 141.62 108.33Z" fill="#F0F0F0"/>
<path d="M327.62 343.76C327.673 346.243 328.199 348.694 329.17 350.98L326.23 353.44L330.42 359.51L333.76 357.65C335.554 359.36 337.654 360.717 339.95 361.65L339.61 365.45L346.87 366.79L347.87 363.12C350.349 363.056 352.794 362.53 355.08 361.57L357.54 364.5L363.62 360.32L361.8 357C363.511 355.207 364.868 353.107 365.8 350.81L369.6 351.15L371 343.9L367.33 342.9C367.277 340.417 366.751 337.966 365.78 335.68L368.72 333.23L364.54 327.15L361.15 329C359.362 327.287 357.265 325.929 354.97 325L355.3 321.19L348.05 319.85L347.05 323.52C344.568 323.584 342.12 324.11 339.83 325.07L337.37 322.14L331.29 326.32L333.16 329.66C331.449 331.453 330.092 333.553 329.16 335.85L325.36 335.51L324 342.72L327.62 343.76ZM337.62 341.5C337.976 339.553 338.902 337.755 340.281 336.335C341.66 334.915 343.429 333.936 345.365 333.521C347.3 333.107 349.315 333.277 351.154 334.009C352.993 334.741 354.574 336.002 355.696 337.633C356.817 339.264 357.43 341.191 357.456 343.17C357.482 345.149 356.919 347.091 355.84 348.751C354.762 350.41 353.214 351.712 351.395 352.492C349.576 353.271 347.566 353.494 345.62 353.13C343.021 352.642 340.721 351.144 339.224 348.965C337.727 346.785 337.154 344.101 337.63 341.5H337.62Z" fill="#F0F0F0"/>
<path d="M112.84 354.08C114.44 354.56 115.18 355.57 115.18 357.98V363.55C115.133 363.896 115.166 364.249 115.277 364.58C115.387 364.912 115.572 365.214 115.818 365.463C116.063 365.712 116.362 365.901 116.691 366.017C117.021 366.133 117.373 366.171 117.72 366.13H118.35V370.38H116.35C111.99 370.38 109.76 368.15 109.76 364.14V357.84C109.76 356.72 109.17 356.2 108.23 356.2H107.08V352H108.23C109.17 352 109.76 351.48 109.76 350.36V344C109.76 340 111.99 337.77 116.35 337.77H118.35V342H117.72C117.373 341.959 117.021 341.997 116.691 342.113C116.362 342.229 116.063 342.418 115.818 342.667C115.572 342.916 115.387 343.218 115.277 343.55C115.166 343.881 115.133 344.234 115.18 344.58V350.15C115.18 352.58 114.44 353.59 112.84 354.08Z" fill="#E0E0E0"/>
<path d="M140.56 352V356.25H139.41C139.194 356.231 138.977 356.261 138.774 356.338C138.572 356.415 138.39 356.538 138.241 356.696C138.093 356.853 137.982 357.043 137.918 357.25C137.854 357.457 137.837 357.676 137.87 357.89V364.19C137.87 368.19 135.64 370.43 131.29 370.43H129.29V366.18H129.92C130.267 366.221 130.619 366.183 130.949 366.067C131.278 365.951 131.577 365.762 131.822 365.513C132.068 365.264 132.253 364.962 132.363 364.63C132.474 364.299 132.507 363.946 132.46 363.6V358C132.46 355.59 133.19 354.58 134.79 354.1C133.19 353.61 132.46 352.6 132.46 350.19V344.6C132.511 344.25 132.48 343.894 132.37 343.558C132.26 343.222 132.073 342.916 131.826 342.664C131.578 342.413 131.275 342.222 130.941 342.106C130.607 341.991 130.25 341.955 129.9 342H129.27V337.75H131.27C135.62 337.75 137.85 339.98 137.85 343.98V350.29C137.817 350.504 137.834 350.723 137.898 350.93C137.962 351.137 138.073 351.327 138.221 351.484C138.37 351.642 138.552 351.765 138.754 351.842C138.957 351.919 139.174 351.949 139.39 351.93L140.56 352Z" fill="#E0E0E0"/>
<path d="M182.06 265.63L185.34 261.69C186.73 263.55 188.27 264.5 190.09 264.5C192.47 264.5 193.71 263.07 193.71 260.26V248.1H184.71V243.35H199.58V259.93C199.58 266.25 196.4 269.36 190.37 269.36C188.791 269.419 187.22 269.114 185.779 268.467C184.338 267.82 183.065 266.849 182.06 265.63Z" fill="#E0E0E0"/>
<path d="M203.14 267.09L205 263C207.067 264.231 209.425 264.887 211.83 264.9C214.46 264.9 215.45 264.21 215.45 263.11C215.45 259.9 203.58 263.18 203.58 255.33C203.58 251.6 206.94 248.97 212.67 248.97C215.296 248.919 217.894 249.51 220.24 250.69L218.34 254.75C216.612 253.77 214.656 253.263 212.67 253.28C210.12 253.28 209.02 254.09 209.02 255.11C209.02 258.47 220.89 255.22 220.89 262.96C220.89 266.62 217.5 269.21 211.61 269.21C208.649 269.26 205.728 268.529 203.14 267.09Z" fill="#E0E0E0"/>
<path d="M250 427.56C357.082 427.56 443.89 422.492 443.89 416.24C443.89 409.988 357.082 404.92 250 404.92C142.917 404.92 56.11 409.988 56.11 416.24C56.11 422.492 142.917 427.56 250 427.56Z" fill="#F5F5F5"/>
<path d="M271.06 107.98H148.55V196.66H271.06V107.98Z" fill="black"/>
<path opacity="0.9" d="M271.06 107.98H148.55V196.66H271.06V107.98Z" fill="white"/>
<path opacity="0.1" d="M165.61 107.98H148.55V196.66H165.61V107.98Z" fill="black"/>
<path d="M271.06 107.98H148.55V116.27H271.06V107.98Z" fill="#606060"/>
<g opacity="0.2">
<path d="M197.71 128.78H175.4C175.135 128.78 174.881 128.675 174.693 128.487C174.506 128.3 174.4 128.045 174.4 127.78C174.4 127.515 174.506 127.26 174.693 127.073C174.881 126.885 175.135 126.78 175.4 126.78H197.71C197.975 126.78 198.23 126.885 198.417 127.073C198.605 127.26 198.71 127.515 198.71 127.78C198.71 128.045 198.605 128.3 198.417 128.487C198.23 128.675 197.975 128.78 197.71 128.78Z" fill="black"/>
<path d="M247 128.78H203.65C203.385 128.78 203.131 128.675 202.943 128.487C202.756 128.3 202.65 128.045 202.65 127.78C202.65 127.515 202.756 127.26 202.943 127.073C203.131 126.885 203.385 126.78 203.65 126.78H247C247.265 126.78 247.52 126.885 247.707 127.073C247.895 127.26 248 127.515 248 127.78C248 128.045 247.895 128.3 247.707 128.487C247.52 128.675 247.265 128.78 247 128.78Z" fill="black"/>
<path d="M236.68 135.31H178.4C178.135 135.31 177.881 135.205 177.693 135.017C177.506 134.83 177.4 134.575 177.4 134.31C177.4 134.045 177.506 133.79 177.693 133.603C177.881 133.415 178.135 133.31 178.4 133.31H236.68C236.945 133.31 237.2 133.415 237.387 133.603C237.575 133.79 237.68 134.045 237.68 134.31C237.68 134.575 237.575 134.83 237.387 135.017C237.2 135.205 236.945 135.31 236.68 135.31Z" fill="black"/>
<path d="M212.94 141.83H175.4C175.135 141.83 174.881 141.725 174.693 141.537C174.506 141.35 174.4 141.095 174.4 140.83C174.4 140.565 174.506 140.31 174.693 140.123C174.881 139.935 175.135 139.83 175.4 139.83H212.94C213.205 139.83 213.46 139.935 213.647 140.123C213.835 140.31 213.94 140.565 213.94 140.83C213.94 141.095 213.835 141.35 213.647 141.537C213.46 141.725 213.205 141.83 212.94 141.83Z" fill="black"/>
<path d="M247 141.83H220.1C219.835 141.83 219.581 141.725 219.393 141.537C219.205 141.35 219.1 141.095 219.1 140.83C219.1 140.565 219.205 140.31 219.393 140.123C219.581 139.935 219.835 139.83 220.1 139.83H247C247.265 139.83 247.52 139.935 247.707 140.123C247.895 140.31 248 140.565 248 140.83C248 141.095 247.895 141.35 247.707 141.537C247.52 141.725 247.265 141.83 247 141.83Z" fill="black"/>
<path d="M196.13 148.36H175.4C175.135 148.36 174.881 148.255 174.693 148.067C174.506 147.88 174.4 147.625 174.4 147.36C174.4 147.095 174.506 146.84 174.693 146.653C174.881 146.465 175.135 146.36 175.4 146.36H196.13C196.395 146.36 196.65 146.465 196.837 146.653C197.025 146.84 197.13 147.095 197.13 147.36C197.13 147.625 197.025 147.88 196.837 148.067C196.65 148.255 196.395 148.36 196.13 148.36Z" fill="black"/>
<path d="M235.49 148.36H202.85C202.585 148.36 202.331 148.255 202.143 148.067C201.955 147.88 201.85 147.625 201.85 147.36C201.85 147.095 201.955 146.84 202.143 146.653C202.331 146.465 202.585 146.36 202.85 146.36H235.49C235.755 146.36 236.01 146.465 236.197 146.653C236.385 146.84 236.49 147.095 236.49 147.36C236.49 147.625 236.385 147.88 236.197 148.067C236.01 148.255 235.755 148.36 235.49 148.36Z" fill="black"/>
<path d="M206.29 154.89H178.4C178.135 154.89 177.881 154.785 177.693 154.597C177.506 154.41 177.4 154.155 177.4 153.89C177.4 153.625 177.506 153.37 177.693 153.183C177.881 152.995 178.135 152.89 178.4 152.89H206.29C206.555 152.89 206.81 152.995 206.997 153.183C207.185 153.37 207.29 153.625 207.29 153.89C207.29 154.155 207.185 154.41 206.997 154.597C206.81 154.785 206.555 154.89 206.29 154.89Z" fill="black"/>
<path d="M209.78 161.42H178.4C178.135 161.42 177.881 161.315 177.693 161.127C177.506 160.94 177.4 160.685 177.4 160.42C177.4 160.155 177.506 159.9 177.693 159.713C177.881 159.525 178.135 159.42 178.4 159.42H209.78C210.045 159.42 210.3 159.525 210.487 159.713C210.675 159.9 210.78 160.155 210.78 160.42C210.78 160.685 210.675 160.94 210.487 161.127C210.3 161.315 210.045 161.42 209.78 161.42Z" fill="black"/>
<path d="M247 161.42H215C214.735 161.42 214.481 161.315 214.293 161.127C214.105 160.94 214 160.685 214 160.42C214 160.155 214.105 159.9 214.293 159.713C214.481 159.525 214.735 159.42 215 159.42H247C247.265 159.42 247.52 159.525 247.707 159.713C247.895 159.9 248 160.155 248 160.42C248 160.685 247.895 160.94 247.707 161.127C247.52 161.315 247.265 161.42 247 161.42Z" fill="black"/>
<path d="M193.36 167.94H175.36C175.095 167.94 174.841 167.835 174.653 167.647C174.465 167.46 174.36 167.205 174.36 166.94C174.36 166.675 174.465 166.42 174.653 166.233C174.841 166.045 175.095 165.94 175.36 165.94H193.36C193.625 165.94 193.88 166.045 194.067 166.233C194.255 166.42 194.36 166.675 194.36 166.94C194.36 167.205 194.255 167.46 194.067 167.647C193.88 167.835 193.625 167.94 193.36 167.94Z" fill="black"/>
<path d="M247 167.94H199.49C199.225 167.94 198.971 167.835 198.783 167.647C198.595 167.46 198.49 167.205 198.49 166.94C198.49 166.675 198.595 166.42 198.783 166.233C198.971 166.045 199.225 165.94 199.49 165.94H247C247.265 165.94 247.52 166.045 247.707 166.233C247.895 166.42 248 166.675 248 166.94C248 167.205 247.895 167.46 247.707 167.647C247.52 167.835 247.265 167.94 247 167.94Z" fill="black"/>
<path d="M209.58 174.47H178.4C178.135 174.47 177.881 174.365 177.693 174.177C177.506 173.99 177.4 173.735 177.4 173.47C177.4 173.205 177.506 172.95 177.693 172.763C177.881 172.575 178.135 172.47 178.4 172.47H209.58C209.845 172.47 210.1 172.575 210.287 172.763C210.475 172.95 210.58 173.205 210.58 173.47C210.58 173.735 210.475 173.99 210.287 174.177C210.1 174.365 209.845 174.47 209.58 174.47Z" fill="black"/>
<path d="M234.11 174.47H213.93C213.665 174.47 213.41 174.365 213.223 174.177C213.035 173.99 212.93 173.735 212.93 173.47C212.93 173.205 213.035 172.95 213.223 172.763C213.41 172.575 213.665 172.47 213.93 172.47H234.11C234.375 172.47 234.63 172.575 234.817 172.763C235.005 172.95 235.11 173.205 235.11 173.47C235.11 173.735 235.005 173.99 234.817 174.177C234.63 174.365 234.375 174.47 234.11 174.47Z" fill="black"/>
<path d="M214.29 181H178.4C178.135 181 177.881 180.895 177.693 180.707C177.506 180.52 177.4 180.265 177.4 180C177.4 179.735 177.506 179.48 177.693 179.293C177.881 179.105 178.135 179 178.4 179H214.29C214.555 179 214.81 179.105 214.997 179.293C215.185 179.48 215.29 179.735 215.29 180C215.29 180.265 215.185 180.52 214.997 180.707C214.81 180.895 214.555 181 214.29 181Z" fill="black"/>
</g>
<path opacity="0.4" d="M265.79 113.89C266.735 113.89 267.5 113.124 267.5 112.18C267.5 111.236 266.735 110.47 265.79 110.47C264.846 110.47 264.08 111.236 264.08 112.18C264.08 113.124 264.846 113.89 265.79 113.89Z" fill="white"/>
<path opacity="0.4" d="M259.78 113.89C260.724 113.89 261.49 113.124 261.49 112.18C261.49 111.236 260.724 110.47 259.78 110.47C258.836 110.47 258.07 111.236 258.07 112.18C258.07 113.124 258.836 113.89 259.78 113.89Z" fill="white"/>
<path opacity="0.4" d="M253.78 113.89C254.724 113.89 255.49 113.124 255.49 112.18C255.49 111.236 254.724 110.47 253.78 110.47C252.836 110.47 252.07 111.236 252.07 112.18C252.07 113.124 252.836 113.89 253.78 113.89Z" fill="white"/>
<g opacity="0.2">
<path d="M157.38 128.78C157.115 128.78 156.86 128.675 156.673 128.487C156.485 128.3 156.38 128.045 156.38 127.78C156.38 127.515 156.485 127.26 156.673 127.073C156.86 126.885 157.115 126.78 157.38 126.78C157.645 126.78 157.9 126.885 158.087 127.073C158.275 127.26 158.38 127.515 158.38 127.78C158.38 128.045 158.275 128.3 158.087 128.487C157.9 128.675 157.645 128.78 157.38 128.78Z" fill="black"/>
<path d="M157.38 135.31C157.115 135.31 156.86 135.205 156.673 135.017C156.485 134.83 156.38 134.575 156.38 134.31C156.38 134.045 156.485 133.79 156.673 133.603C156.86 133.415 157.115 133.31 157.38 133.31C157.645 133.31 157.9 133.415 158.087 133.603C158.275 133.79 158.38 134.045 158.38 134.31C158.38 134.575 158.275 134.83 158.087 135.017C157.9 135.205 157.645 135.31 157.38 135.31Z" fill="black"/>
<path d="M157.38 141.83C157.115 141.83 156.86 141.725 156.673 141.537C156.485 141.35 156.38 141.095 156.38 140.83C156.38 140.565 156.485 140.31 156.673 140.123C156.86 139.935 157.115 139.83 157.38 139.83C157.645 139.83 157.9 139.935 158.087 140.123C158.275 140.31 158.38 140.565 158.38 140.83C158.38 141.095 158.275 141.35 158.087 141.537C157.9 141.725 157.645 141.83 157.38 141.83Z" fill="black"/>
<path d="M157.38 148.36C157.115 148.36 156.86 148.255 156.673 148.067C156.485 147.88 156.38 147.625 156.38 147.36C156.38 147.095 156.485 146.84 156.673 146.653C156.86 146.465 157.115 146.36 157.38 146.36C157.645 146.36 157.9 146.465 158.087 146.653C158.275 146.84 158.38 147.095 158.38 147.36C158.38 147.625 158.275 147.88 158.087 148.067C157.9 148.255 157.645 148.36 157.38 148.36Z" fill="black"/>
<path d="M157.38 154.89C157.115 154.89 156.86 154.785 156.673 154.597C156.485 154.41 156.38 154.155 156.38 153.89C156.38 153.625 156.485 153.37 156.673 153.183C156.86 152.995 157.115 152.89 157.38 152.89C157.645 152.89 157.9 152.995 158.087 153.183C158.275 153.37 158.38 153.625 158.38 153.89C158.38 154.155 158.275 154.41 158.087 154.597C157.9 154.785 157.645 154.89 157.38 154.89Z" fill="black"/>
<path d="M157.38 161.42C157.115 161.42 156.86 161.315 156.673 161.127C156.485 160.94 156.38 160.685 156.38 160.42C156.38 160.155 156.485 159.9 156.673 159.713C156.86 159.525 157.115 159.42 157.38 159.42C157.645 159.42 157.9 159.525 158.087 159.713C158.275 159.9 158.38 160.155 158.38 160.42C158.38 160.685 158.275 160.94 158.087 161.127C157.9 161.315 157.645 161.42 157.38 161.42Z" fill="black"/>
<path d="M157.38 167.94C157.115 167.94 156.86 167.835 156.673 167.647C156.485 167.46 156.38 167.205 156.38 166.94C156.38 166.675 156.485 166.42 156.673 166.233C156.86 166.045 157.115 165.94 157.38 165.94C157.645 165.94 157.9 166.045 158.087 166.233C158.275 166.42 158.38 166.675 158.38 166.94C158.38 167.205 158.275 167.46 158.087 167.647C157.9 167.835 157.645 167.94 157.38 167.94Z" fill="black"/>
<path d="M157.38 174.47C157.115 174.47 156.86 174.365 156.673 174.177C156.485 173.99 156.38 173.735 156.38 173.47C156.38 173.205 156.485 172.95 156.673 172.763C156.86 172.575 157.115 172.47 157.38 172.47C157.645 172.47 157.9 172.575 158.087 172.763C158.275 172.95 158.38 173.205 158.38 173.47C158.38 173.735 158.275 173.99 158.087 174.177C157.9 174.365 157.645 174.47 157.38 174.47Z" fill="black"/>
<path d="M157.38 181C157.115 181 156.86 180.895 156.673 180.707C156.485 180.52 156.38 180.265 156.38 180C156.38 179.735 156.485 179.48 156.673 179.293C156.86 179.105 157.115 179 157.38 179C157.645 179 157.9 179.105 158.087 179.293C158.275 179.48 158.38 179.735 158.38 180C158.38 180.265 158.275 180.52 158.087 180.707C157.9 180.895 157.645 181 157.38 181Z" fill="black"/>
</g>
<path d="M382.02 180.34H221.49V283.13H382.02V180.34Z" fill="#263238"/>
<path opacity="0.9" d="M382.02 180.34H221.49V283.13H382.02V180.34Z" fill="white"/>
<path opacity="0.1" d="M246.53 180.34H221.49V283.13H246.53V180.34Z" fill="black"/>
<path d="M382.02 180.34H221.49V188.63H382.02V180.34Z" fill="#606060"/>
<path d="M232.83 197.72L230.17 198.72L232.83 199.72V200.72L229.03 199.27V198.27L232.83 196.83V197.72Z" fill="white"/>
<path d="M235.7 194.76H236.81L234.17 202.29H233.06L235.7 194.76Z" fill="white"/>
<path d="M240.76 198.17V199.17L236.96 200.62V199.62L239.62 198.62L236.96 197.62V196.62L240.76 198.17Z" fill="white"/>
<g opacity="0.2">
<path d="M240.2 209.15H229.32C229.055 209.15 228.8 209.045 228.613 208.857C228.425 208.67 228.32 208.415 228.32 208.15C228.32 207.885 228.425 207.63 228.613 207.443C228.8 207.255 229.055 207.15 229.32 207.15H240.2C240.465 207.15 240.72 207.255 240.907 207.443C241.095 207.63 241.2 207.885 241.2 208.15C241.2 208.415 241.095 208.67 240.907 208.857C240.72 209.045 240.465 209.15 240.2 209.15Z" fill="black"/>
<path d="M240.2 215.67H229.32C229.055 215.67 228.8 215.565 228.613 215.377C228.425 215.19 228.32 214.935 228.32 214.67C228.32 214.405 228.425 214.15 228.613 213.963C228.8 213.775 229.055 213.67 229.32 213.67H240.2C240.465 213.67 240.72 213.775 240.907 213.963C241.095 214.15 241.2 214.405 241.2 214.67C241.2 214.935 241.095 215.19 240.907 215.377C240.72 215.565 240.465 215.67 240.2 215.67Z" fill="black"/>
<path d="M240.2 222.2H229.32C229.055 222.2 228.8 222.095 228.613 221.907C228.425 221.72 228.32 221.465 228.32 221.2C228.32 220.935 228.425 220.68 228.613 220.493C228.8 220.305 229.055 220.2 229.32 220.2H240.2C240.465 220.2 240.72 220.305 240.907 220.493C241.095 220.68 241.2 220.935 241.2 221.2C241.2 221.465 241.095 221.72 240.907 221.907C240.72 222.095 240.465 222.2 240.2 222.2Z" fill="black"/>
<path d="M240.2 228.73H229.32C229.055 228.73 228.8 228.625 228.613 228.437C228.425 228.25 228.32 227.995 228.32 227.73C228.32 227.465 228.425 227.21 228.613 227.023C228.8 226.835 229.055 226.73 229.32 226.73H240.2C240.465 226.73 240.72 226.835 240.907 227.023C241.095 227.21 241.2 227.465 241.2 227.73C241.2 227.995 241.095 228.25 240.907 228.437C240.72 228.625 240.465 228.73 240.2 228.73Z" fill="black"/>
<path d="M240.2 235.26H229.32C229.055 235.26 228.8 235.155 228.613 234.967C228.425 234.78 228.32 234.525 228.32 234.26C228.32 233.995 228.425 233.74 228.613 233.553C228.8 233.365 229.055 233.26 229.32 233.26H240.2C240.465 233.26 240.72 233.365 240.907 233.553C241.095 233.74 241.2 233.995 241.2 234.26C241.2 234.525 241.095 234.78 240.907 234.967C240.72 235.155 240.465 235.26 240.2 235.26Z" fill="black"/>
<path d="M240.2 241.78H229.32C229.055 241.78 228.8 241.675 228.613 241.487C228.425 241.3 228.32 241.045 228.32 240.78C228.32 240.515 228.425 240.26 228.613 240.073C228.8 239.885 229.055 239.78 229.32 239.78H240.2C240.465 239.78 240.72 239.885 240.907 240.073C241.095 240.26 241.2 240.515 241.2 240.78C241.2 241.045 241.095 241.3 240.907 241.487C240.72 241.675 240.465 241.78 240.2 241.78Z" fill="black"/>
<path d="M240.2 248.31H229.32C229.055 248.31 228.8 248.205 228.613 248.017C228.425 247.83 228.32 247.575 228.32 247.31C228.32 247.045 228.425 246.79 228.613 246.603C228.8 246.415 229.055 246.31 229.32 246.31H240.2C240.465 246.31 240.72 246.415 240.907 246.603C241.095 246.79 241.2 247.045 241.2 247.31C241.2 247.575 241.095 247.83 240.907 248.017C240.72 248.205 240.465 248.31 240.2 248.31Z" fill="black"/>
<path d="M240.2 254.84H229.32C229.055 254.84 228.8 254.735 228.613 254.547C228.425 254.36 228.32 254.105 228.32 253.84C228.32 253.575 228.425 253.32 228.613 253.133C228.8 252.945 229.055 252.84 229.32 252.84H240.2C240.465 252.84 240.72 252.945 240.907 253.133C241.095 253.32 241.2 253.575 241.2 253.84C241.2 254.105 241.095 254.36 240.907 254.547C240.72 254.735 240.465 254.84 240.2 254.84Z" fill="black"/>
<path d="M240.2 261.37H229.32C229.055 261.37 228.8 261.265 228.613 261.077C228.425 260.89 228.32 260.635 228.32 260.37C228.32 260.105 228.425 259.85 228.613 259.663C228.8 259.475 229.055 259.37 229.32 259.37H240.2C240.465 259.37 240.72 259.475 240.907 259.663C241.095 259.85 241.2 260.105 241.2 260.37C241.2 260.635 241.095 260.89 240.907 261.077C240.72 261.265 240.465 261.37 240.2 261.37Z" fill="black"/>
</g>
<path d="M271.65 209.15H249.34C249.075 209.15 248.821 209.045 248.633 208.857C248.445 208.67 248.34 208.415 248.34 208.15C248.34 207.885 248.445 207.63 248.633 207.443C248.821 207.255 249.075 207.15 249.34 207.15H271.65C271.915 207.15 272.17 207.255 272.357 207.443C272.545 207.63 272.65 207.885 272.65 208.15C272.65 208.415 272.545 208.67 272.357 208.857C272.17 209.045 271.915 209.15 271.65 209.15Z" fill="#606060"/>
<path d="M335.74 209.15H277.59C277.325 209.15 277.071 209.045 276.883 208.857C276.695 208.67 276.59 208.415 276.59 208.15C276.59 207.885 276.695 207.63 276.883 207.443C277.071 207.255 277.325 207.15 277.59 207.15H335.74C336.005 207.15 336.26 207.255 336.447 207.443C336.635 207.63 336.74 207.885 336.74 208.15C336.74 208.415 336.635 208.67 336.447 208.857C336.26 209.045 336.005 209.15 335.74 209.15Z" fill="#263238"/>
<g opacity="0.2">
<path d="M362.28 209.15H345.43C345.165 209.15 344.91 209.045 344.723 208.857C344.535 208.67 344.43 208.415 344.43 208.15C344.43 207.885 344.535 207.63 344.723 207.443C344.91 207.255 345.165 207.15 345.43 207.15H362.28C362.545 207.15 362.8 207.255 362.987 207.443C363.175 207.63 363.28 207.885 363.28 208.15C363.28 208.415 363.175 208.67 362.987 208.857C362.8 209.045 362.545 209.15 362.28 209.15Z" fill="#263238"/>
</g>
<g opacity="0.2">
<path d="M310.62 215.67H252.34C252.075 215.67 251.821 215.565 251.633 215.377C251.445 215.19 251.34 214.935 251.34 214.67C251.34 214.405 251.445 214.15 251.633 213.963C251.821 213.775 252.075 213.67 252.34 213.67H310.62C310.885 213.67 311.14 213.775 311.327 213.963C311.515 214.15 311.62 214.405 311.62 214.67C311.62 214.935 311.515 215.19 311.327 215.377C311.14 215.565 310.885 215.67 310.62 215.67Z" fill="#263238"/>
</g>
<path d="M370.28 215.67H316C315.735 215.67 315.48 215.565 315.293 215.377C315.105 215.19 315 214.935 315 214.67C315 214.405 315.105 214.15 315.293 213.963C315.48 213.775 315.735 213.67 316 213.67H370.32C370.585 213.67 370.84 213.775 371.027 213.963C371.215 214.15 371.32 214.405 371.32 214.67C371.32 214.935 371.215 215.19 371.027 215.377C370.84 215.565 370.585 215.67 370.32 215.67H370.28Z" fill="#606060"/>
<path d="M286.88 222.2H252.34C252.075 222.2 251.821 222.095 251.633 221.907C251.445 221.72 251.34 221.465 251.34 221.2C251.34 220.935 251.445 220.68 251.633 220.493C251.821 220.305 252.075 220.2 252.34 220.2H286.88C287.145 220.2 287.4 220.305 287.587 220.493C287.775 220.68 287.88 220.935 287.88 221.2C287.88 221.465 287.775 221.72 287.587 221.907C287.4 222.095 287.145 222.2 286.88 222.2Z" fill="#263238"/>
<path d="M328 222.2H294C293.735 222.2 293.48 222.095 293.293 221.907C293.105 221.72 293 221.465 293 221.2C293 220.935 293.105 220.68 293.293 220.493C293.48 220.305 293.735 220.2 294 220.2H328C328.265 220.2 328.52 220.305 328.707 220.493C328.895 220.68 329 220.935 329 221.2C329 221.465 328.895 221.72 328.707 221.907C328.52 222.095 328.265 222.2 328 222.2Z" fill="#606060"/>
<path d="M370.28 222.2H333.56C333.295 222.2 333.041 222.095 332.853 221.907C332.665 221.72 332.56 221.465 332.56 221.2C332.56 220.935 332.665 220.68 332.853 220.493C333.041 220.305 333.295 220.2 333.56 220.2H370.28C370.545 220.2 370.8 220.305 370.987 220.493C371.175 220.68 371.28 220.935 371.28 221.2C371.28 221.465 371.175 221.72 370.987 221.907C370.8 222.095 370.545 222.2 370.28 222.2Z" fill="#263238"/>
<path d="M290.08 228.73H269.35C269.085 228.73 268.831 228.625 268.643 228.437C268.455 228.25 268.35 227.995 268.35 227.73C268.35 227.465 268.455 227.21 268.643 227.023C268.831 226.835 269.085 226.73 269.35 226.73H290.08C290.345 226.73 290.6 226.835 290.787 227.023C290.975 227.21 291.08 227.465 291.08 227.73C291.08 227.995 290.975 228.25 290.787 228.437C290.6 228.625 290.345 228.73 290.08 228.73Z" fill="#263238"/>
<path d="M319.44 228.73H296.81C296.545 228.73 296.291 228.625 296.103 228.437C295.915 228.25 295.81 227.995 295.81 227.73C295.81 227.465 295.915 227.21 296.103 227.023C296.291 226.835 296.545 226.73 296.81 226.73H319.44C319.705 226.73 319.96 226.835 320.147 227.023C320.335 227.21 320.44 227.465 320.44 227.73C320.44 227.995 320.335 228.25 320.147 228.437C319.96 228.625 319.705 228.73 319.44 228.73Z" fill="#263238"/>
<g opacity="0.2">
<path d="M361.28 228.73H324.58C324.315 228.73 324.061 228.625 323.873 228.437C323.685 228.25 323.58 227.995 323.58 227.73C323.58 227.465 323.685 227.21 323.873 227.023C324.061 226.835 324.315 226.73 324.58 226.73H361.28C361.545 226.73 361.8 226.835 361.987 227.023C362.175 227.21 362.28 227.465 362.28 227.73C362.28 227.995 362.175 228.25 361.987 228.437C361.8 228.625 361.545 228.73 361.28 228.73Z" fill="#263238"/>
</g>
<g opacity="0.2">
<path d="M280.23 235.26H252.34C252.075 235.26 251.821 235.155 251.633 234.967C251.445 234.78 251.34 234.525 251.34 234.26C251.34 233.995 251.445 233.74 251.633 233.553C251.821 233.365 252.075 233.26 252.34 233.26H280.23C280.495 233.26 280.75 233.365 280.937 233.553C281.125 233.74 281.23 233.995 281.23 234.26C281.23 234.525 281.125 234.78 280.937 234.967C280.75 235.155 280.495 235.26 280.23 235.26Z" fill="#263238"/>
</g>
<path d="M283.72 241.78H252.34C252.075 241.78 251.821 241.675 251.633 241.487C251.445 241.3 251.34 241.045 251.34 240.78C251.34 240.515 251.445 240.26 251.633 240.073C251.821 239.885 252.075 239.78 252.34 239.78H283.72C283.985 239.78 284.24 239.885 284.427 240.073C284.615 240.26 284.72 240.515 284.72 240.78C284.72 241.045 284.615 241.3 284.427 241.487C284.24 241.675 283.985 241.78 283.72 241.78Z" fill="#606060"/>
<path d="M336.14 241.78H288.86C288.595 241.78 288.34 241.675 288.153 241.487C287.965 241.3 287.86 241.045 287.86 240.78C287.86 240.515 287.965 240.26 288.153 240.073C288.34 239.885 288.595 239.78 288.86 239.78H336.14C336.405 239.78 336.66 239.885 336.847 240.073C337.035 240.26 337.14 240.515 337.14 240.78C337.14 241.045 337.035 241.3 336.847 241.487C336.66 241.675 336.405 241.78 336.14 241.78Z" fill="#263238"/>
<path d="M370.28 241.78H341.87C341.605 241.78 341.35 241.675 341.163 241.487C340.975 241.3 340.87 241.045 340.87 240.78C340.87 240.515 340.975 240.26 341.163 240.073C341.35 239.885 341.605 239.78 341.87 239.78H370.28C370.545 239.78 370.8 239.885 370.987 240.073C371.175 240.26 371.28 240.515 371.28 240.78C371.28 241.045 371.175 241.3 370.987 241.487C370.8 241.675 370.545 241.78 370.28 241.78Z" fill="#263238"/>
<g opacity="0.2">
<path d="M280.31 248.31H262.31C262.045 248.31 261.791 248.205 261.603 248.017C261.415 247.83 261.31 247.575 261.31 247.31C261.31 247.045 261.415 246.79 261.603 246.603C261.791 246.415 262.045 246.31 262.31 246.31H280.31C280.575 246.31 280.83 246.415 281.017 246.603C281.205 246.79 281.31 247.045 281.31 247.31C281.31 247.575 281.205 247.83 281.017 248.017C280.83 248.205 280.575 248.31 280.31 248.31Z" fill="#263238"/>
</g>
<g opacity="0.2">
<path d="M320.9 248.31H286.44C286.175 248.31 285.92 248.205 285.733 248.017C285.545 247.83 285.44 247.575 285.44 247.31C285.44 247.045 285.545 246.79 285.733 246.603C285.92 246.415 286.175 246.31 286.44 246.31H320.9C321.165 246.31 321.42 246.415 321.607 246.603C321.795 246.79 321.9 247.045 321.9 247.31C321.9 247.575 321.795 247.83 321.607 248.017C321.42 248.205 321.165 248.31 320.9 248.31Z" fill="#263238"/>
</g>
<path d="M361.28 248.31H327.63C327.365 248.31 327.11 248.205 326.923 248.017C326.735 247.83 326.63 247.575 326.63 247.31C326.63 247.045 326.735 246.79 326.923 246.603C327.11 246.415 327.365 246.31 327.63 246.31H361.28C361.545 246.31 361.8 246.415 361.987 246.603C362.175 246.79 362.28 247.045 362.28 247.31C362.28 247.575 362.175 247.83 361.987 248.017C361.8 248.205 361.545 248.31 361.28 248.31Z" fill="#263238"/>
<path d="M293.53 254.84H272.35C272.085 254.84 271.831 254.735 271.643 254.547C271.455 254.36 271.35 254.105 271.35 253.84C271.35 253.575 271.455 253.32 271.643 253.133C271.831 252.945 272.085 252.84 272.35 252.84H293.53C293.795 252.84 294.05 252.945 294.237 253.133C294.425 253.32 294.53 253.575 294.53 253.84C294.53 254.105 294.425 254.36 294.237 254.547C294.05 254.735 293.795 254.84 293.53 254.84Z" fill="#263238"/>
<g opacity="0.2">
<path d="M318.05 254.84H297.88C297.615 254.84 297.36 254.735 297.173 254.547C296.985 254.36 296.88 254.105 296.88 253.84C296.88 253.575 296.985 253.32 297.173 253.133C297.36 252.945 297.615 252.84 297.88 252.84H318.05C318.315 252.84 318.57 252.945 318.757 253.133C318.945 253.32 319.05 253.575 319.05 253.84C319.05 254.105 318.945 254.36 318.757 254.547C318.57 254.735 318.315 254.84 318.05 254.84Z" fill="#263238"/>
</g>
<path d="M361.28 254.84H324.38C324.115 254.84 323.86 254.735 323.673 254.547C323.485 254.36 323.38 254.105 323.38 253.84C323.38 253.575 323.485 253.32 323.673 253.133C323.86 252.945 324.115 252.84 324.38 252.84H361.28C361.545 252.84 361.8 252.945 361.987 253.133C362.175 253.32 362.28 253.575 362.28 253.84C362.28 254.105 362.175 254.36 361.987 254.547C361.8 254.735 361.545 254.84 361.28 254.84Z" fill="#606060"/>
<g opacity="0.2">
<path d="M298.24 261.37H272.35C272.085 261.37 271.831 261.265 271.643 261.077C271.455 260.89 271.35 260.635 271.35 260.37C271.35 260.105 271.455 259.85 271.643 259.663C271.831 259.475 272.085 259.37 272.35 259.37H298.24C298.505 259.37 298.76 259.475 298.947 259.663C299.135 259.85 299.24 260.105 299.24 260.37C299.24 260.635 299.135 260.89 298.947 261.077C298.76 261.265 298.505 261.37 298.24 261.37Z" fill="#263238"/>
</g>
<path opacity="0.4" d="M375 184.55C375 184.891 375.101 185.224 375.291 185.507C375.48 185.79 375.749 186.01 376.064 186.14C376.379 186.27 376.725 186.303 377.059 186.236C377.393 186.169 377.7 186.004 377.94 185.763C378.18 185.521 378.343 185.214 378.408 184.879C378.473 184.545 378.438 184.199 378.306 183.885C378.174 183.571 377.952 183.303 377.668 183.115C377.384 182.927 377.051 182.828 376.71 182.83C376.485 182.83 376.261 182.875 376.053 182.961C375.845 183.048 375.656 183.175 375.497 183.334C375.338 183.494 375.213 183.684 375.127 183.893C375.042 184.101 374.999 184.325 375 184.55Z" fill="white"/>
<path opacity="0.4" d="M370.75 186.26C371.694 186.26 372.46 185.494 372.46 184.55C372.46 183.606 371.694 182.84 370.75 182.84C369.806 182.84 369.04 183.606 369.04 184.55C369.04 185.494 369.806 186.26 370.75 186.26Z" fill="white"/>
<path opacity="0.4" d="M364.74 186.26C365.684 186.26 366.45 185.494 366.45 184.55C366.45 183.606 365.684 182.84 364.74 182.84C363.796 182.84 363.03 183.606 363.03 184.55C363.03 185.494 363.796 186.26 364.74 186.26Z" fill="white"/>
<path d="M113.26 186.42H84.5399C83.3782 186.419 82.2276 186.646 81.154 187.09C80.0803 187.534 79.1046 188.185 78.2827 189.006C77.4607 189.827 76.8087 190.802 76.3638 191.875C75.9189 192.948 75.6899 194.098 75.6899 195.26V220.26C75.6886 221.422 75.9163 222.572 76.36 223.646C76.8036 224.72 77.4546 225.695 78.2756 226.517C79.0966 227.339 80.0715 227.991 81.1447 228.436C82.2179 228.881 83.3682 229.11 84.5299 229.11H104.9L110.9 237V229.11H113.25C115.597 229.11 117.848 228.178 119.508 226.518C121.168 224.858 122.1 222.607 122.1 220.26V195.26C122.1 192.915 121.169 190.667 119.511 189.009C117.853 187.351 115.604 186.42 113.26 186.42Z" fill="#606060"/>
<path opacity="0.7" d="M113.26 186.42H84.5399C83.3782 186.419 82.2276 186.646 81.154 187.09C80.0803 187.534 79.1046 188.185 78.2827 189.006C77.4607 189.827 76.8087 190.802 76.3638 191.875C75.9189 192.948 75.6899 194.098 75.6899 195.26V220.26C75.6886 221.422 75.9163 222.572 76.36 223.646C76.8036 224.72 77.4546 225.695 78.2756 226.517C79.0966 227.339 80.0715 227.991 81.1447 228.436C82.2179 228.881 83.3682 229.11 84.5299 229.11H104.9L110.9 237V229.11H113.25C115.597 229.11 117.848 228.178 119.508 226.518C121.168 224.858 122.1 222.607 122.1 220.26V195.26C122.1 192.915 121.169 190.667 119.511 189.009C117.853 187.351 115.604 186.42 113.26 186.42Z" fill="white"/>
<path d="M97.4 214C97.2101 213.999 97.0227 213.958 96.8502 213.878C96.6777 213.799 96.5242 213.684 96.4 213.54L90.81 207C90.6984 206.869 90.6137 206.717 90.5608 206.553C90.508 206.389 90.4879 206.216 90.5019 206.044C90.5158 205.872 90.5634 205.705 90.642 205.551C90.7206 205.398 90.8287 205.262 90.96 205.15C91.0913 205.038 91.2433 204.954 91.4074 204.901C91.5714 204.848 91.7443 204.828 91.9161 204.842C92.0879 204.856 92.2552 204.903 92.4086 204.982C92.562 205.061 92.6984 205.169 92.81 205.3L97.4 210.72L104.99 201.78C105.218 201.528 105.535 201.375 105.874 201.353C106.212 201.33 106.547 201.44 106.806 201.659C107.065 201.878 107.23 202.19 107.264 202.527C107.298 202.865 107.2 203.203 106.99 203.47L98.4 213.56C98.2748 213.701 98.1206 213.813 97.9481 213.889C97.7755 213.965 97.5885 214.003 97.4 214Z" fill="white"/>
<path d="M108.977 217.731C114.546 212.162 114.546 203.133 108.977 197.565C103.408 191.996 94.379 191.996 88.8102 197.565C83.2413 203.133 83.2413 212.162 88.8101 217.731C94.379 223.3 103.408 223.3 108.977 217.731Z" fill="#606060"/>
<path d="M204.72 363.48L226.19 362.43L224.1 381.1C224.1 381.1 209.2 383.94 202.55 373.34L204.72 363.48Z" fill="#EBB376"/>
<path d="M240.03 368.94L235.14 382.48L224.1 381.1L226.19 362.43L240.03 368.94Z" fill="#EBB376"/>
<path d="M184.11 393.78C192.285 389.511 199.737 383.98 206.19 377.39L204.72 363.48C184.43 366.48 172.72 370.77 172.72 370.77C172.72 370.77 180.24 343.82 173.36 334L154.47 337.42C154.47 337.42 134.4 379.14 147.9 393.78H184.11Z" fill="#606060"/>
<path opacity="0.7" d="M184.08 393.78C192.26 389.512 199.718 383.985 206.18 377.4L204.72 363.47C185.08 366.35 173.47 370.47 172.72 370.74C172.97 369.74 180.08 343.63 173.34 333.99L154.45 337.41C150.566 345.787 147.483 354.513 145.24 363.47C142.54 374.86 141.75 387.13 147.89 393.78H184.08Z" fill="white"/>
<path opacity="0.2" d="M168.55 393.78C175.22 351.52 169.31 340.78 169.31 340.78L145.31 363.45C142.61 374.84 141.82 387.11 147.96 393.76L168.55 393.78Z" fill="black"/>
<path d="M164.38 393.78C168.88 372.42 173.93 338.98 173.38 334C172.58 326.76 133.2 295.74 99.02 318.32C92.02 322.93 88.45 372.66 87.23 393.78H164.38Z" fill="#606060"/>
<path opacity="0.7" d="M164.38 393.78C168.88 372.42 173.93 338.97 173.38 333.99C172.58 326.76 133.19 295.74 99.01 318.33C96.48 320.02 94.4 327.65 92.68 337.73C90.4 351.45 88.82 369.67 87.88 383.41C87.62 387.3 87.4 390.82 87.23 393.78H164.38Z" fill="white"/>
<path d="M147.51 226.55C135.66 221.76 107.72 238.95 105.27 269.6C102.82 300.25 118.36 291.76 118.36 291.76C118.36 291.76 121.13 303.45 132.45 299.84C132.45 299.84 141.8 310.43 150.5 306.12C150.5 306.12 161.33 317.4 167.14 311.45C167.14 311.45 173.46 318.66 179.23 313.2C185 307.74 201.49 252 175.62 239.11C149.75 226.22 147.51 226.55 147.51 226.55Z" fill="#263238"/>
<path d="M147.53 352L146.39 351.9C147.71 337.14 144.46 330.61 144.39 330.55L145.39 330.02C145.58 330.25 148.88 336.82 147.53 352Z" fill="#263238"/>
<path d="M152.89 352.13C145.04 333.64 153.89 329.33 154.25 329.13L154.72 330.13C154.64 330.13 146.56 334.22 153.94 351.62L152.89 352.13Z" fill="#263238"/>
<path d="M145.22 333.54C145.22 333.54 130.07 321.54 106.55 314.78L99 318.32C99 318.32 86.34 302.65 107.44 297.52C128.54 292.39 157.24 306.52 164.44 318.62C171.64 330.72 151.92 334.62 151.92 334.62C151.92 334.62 150.11 332.16 145.22 333.54Z" fill="#606060"/>
<path opacity="0.6" d="M145.22 333.54C145.22 333.54 130.07 321.54 106.55 314.78L99 318.32C99 318.32 86.34 302.65 107.44 297.52C128.54 292.39 157.24 306.52 164.44 318.62C171.64 330.72 151.92 334.62 151.92 334.62C151.92 334.62 150.11 332.16 145.22 333.54Z" fill="white"/>
<path d="M154.36 351.91C154.36 352.108 154.301 352.301 154.191 352.466C154.082 352.63 153.925 352.758 153.743 352.834C153.56 352.91 153.359 352.929 153.165 352.891C152.971 352.852 152.793 352.757 152.653 352.617C152.513 352.477 152.418 352.299 152.379 352.105C152.341 351.911 152.36 351.71 152.436 351.527C152.512 351.345 152.64 351.188 152.804 351.079C152.969 350.969 153.162 350.91 153.36 350.91C153.625 350.91 153.88 351.015 154.067 351.203C154.255 351.39 154.36 351.645 154.36 351.91Z" fill="white"/>
<path d="M147.87 351.91C147.87 352.108 147.811 352.301 147.701 352.466C147.592 352.63 147.435 352.758 147.253 352.834C147.07 352.91 146.869 352.929 146.675 352.891C146.481 352.852 146.303 352.757 146.163 352.617C146.023 352.477 145.928 352.299 145.889 352.105C145.851 351.911 145.87 351.71 145.946 351.527C146.022 351.345 146.15 351.188 146.314 351.079C146.479 350.969 146.672 350.91 146.87 350.91C147.135 350.91 147.39 351.015 147.577 351.203C147.765 351.39 147.87 351.645 147.87 351.91Z" fill="white"/>
<path d="M137.17 277C136.25 287.73 132.96 306.83 124.23 311C124.23 311 133.99 313 149.23 332.31C157.9 326.23 154.62 322.08 154.62 322.08C144.48 315.43 147.11 307.23 151.21 300.08L137.17 277Z" fill="#EBB376"/>
<path opacity="0.2" d="M142.88 286.41L151.19 300.11C150.198 301.764 149.358 303.504 148.68 305.31C144.68 303.17 140.3 296.39 141.13 291.75C141.389 289.88 141.981 288.071 142.88 286.41Z" fill="black"/>
<path d="M136 254.31C133.21 271.17 131.67 278.23 137.92 289.08C147.31 305.41 168.12 306.18 175.77 290.74C182.65 276.84 186.06 251.6 171.7 240.46C157.53 229.48 138.77 237.44 136 254.31Z" fill="#EBB376"/>
<path d="M170.53 231.07C181.46 237.13 191.87 256.07 176.32 251.34C173.97 255.89 165.6 251.72 160.73 246.26C159.91 250.05 150.95 253.85 144.35 247.98C147.54 252.58 142.11 264.19 136.46 262.19C130.81 260.19 118.13 257.56 129.36 239.66C140.59 221.76 158.86 224.58 170.53 231.07Z" fill="#263238"/>
<path d="M166.55 270.22C166.55 270.22 167.55 276.91 169.45 280.54C167.32 281.77 164.45 280.13 164.45 280.13L166.55 270.22Z" fill="#D58745"/>
<path d="M155.65 283.13C156.36 283.477 157.099 283.758 157.86 283.97C157.911 283.985 157.965 283.989 158.018 283.981C158.071 283.974 158.122 283.956 158.167 283.927C158.212 283.899 158.251 283.861 158.281 283.817C158.311 283.773 158.331 283.723 158.34 283.67C158.367 283.56 158.35 283.444 158.292 283.346C158.234 283.249 158.14 283.178 158.03 283.15C156.309 282.668 154.719 281.806 153.376 280.627C152.033 279.448 150.971 277.983 150.27 276.34C150.255 276.287 150.23 276.237 150.195 276.194C150.161 276.151 150.118 276.116 150.07 276.089C150.021 276.063 149.968 276.047 149.913 276.042C149.858 276.037 149.803 276.043 149.75 276.06C149.649 276.102 149.568 276.182 149.525 276.283C149.482 276.384 149.48 276.498 149.52 276.6C150.691 279.457 152.873 281.781 155.65 283.13Z" fill="#263238"/>
<path d="M127.49 266.43C128.433 269.935 130.727 272.924 133.87 274.74C137.94 276.97 140.87 273.15 140.57 268.4C140.26 264.11 137.76 257.79 133.3 257.54C128.84 257.29 126.28 262 127.49 266.43Z" fill="#EBB376"/>
<path d="M154.5 254.77C154.6 254.817 154.709 254.841 154.82 254.841C154.931 254.841 155.04 254.817 155.14 254.77C156.028 254.277 157.023 254.011 158.037 253.993C159.052 253.976 160.056 254.208 160.96 254.67C161.05 254.728 161.151 254.766 161.256 254.782C161.361 254.798 161.469 254.791 161.572 254.763C161.675 254.735 161.77 254.685 161.853 254.617C161.935 254.55 162.002 254.465 162.05 254.37C162.149 254.169 162.17 253.938 162.109 253.722C162.048 253.506 161.91 253.32 161.72 253.2C160.592 252.582 159.326 252.258 158.04 252.258C156.754 252.258 155.488 252.582 154.36 253.2C154.171 253.313 154.032 253.494 153.973 253.706C153.913 253.918 153.937 254.145 154.04 254.34C154.137 254.534 154.3 254.686 154.5 254.77Z" fill="#263238"/>
<path d="M181.37 261.35C181.46 261.402 181.56 261.434 181.664 261.444C181.767 261.454 181.871 261.443 181.97 261.41C182.074 261.375 182.17 261.32 182.252 261.247C182.335 261.175 182.402 261.087 182.449 260.988C182.497 260.889 182.524 260.782 182.529 260.672C182.534 260.562 182.518 260.453 182.48 260.35C182.115 259.051 181.455 257.853 180.551 256.851C179.648 255.848 178.525 255.068 177.27 254.57C177.167 254.533 177.057 254.52 176.949 254.529C176.84 254.539 176.734 254.572 176.639 254.626C176.545 254.68 176.462 254.754 176.399 254.843C176.335 254.931 176.291 255.033 176.27 255.14C176.218 255.357 176.249 255.586 176.356 255.782C176.463 255.978 176.639 256.127 176.85 256.2C177.839 256.609 178.721 257.239 179.428 258.041C180.135 258.844 180.649 259.798 180.93 260.83C180.965 260.942 181.022 261.045 181.098 261.134C181.173 261.224 181.266 261.297 181.37 261.35Z" fill="#263238"/>
<path d="M159.88 265.8C159.39 267.14 158.27 267.95 157.38 267.62C156.49 267.29 156.17 265.95 156.66 264.62C157.15 263.29 158.27 262.47 159.15 262.8C160.03 263.13 160.36 264.47 159.88 265.8Z" fill="#263238"/>
<path d="M158.76 262.73L162.08 262.66C162.08 262.66 159.74 264.56 158.76 262.73Z" fill="#263238"/>
<path d="M176.67 271.13C176.18 272.46 175.06 273.27 174.18 272.95C173.3 272.63 172.96 271.27 173.45 269.95C173.94 268.63 175.06 267.81 175.95 268.13C176.84 268.45 177.16 269.79 176.67 271.13Z" fill="#263238"/>
<path d="M175.56 268.05L178.87 267.98C178.87 267.98 176.53 269.89 175.56 268.05Z" fill="#263238"/>
<path d="M158.3 275.25C157.267 275.253 156.245 275.039 155.3 274.62C154.3 274.161 153.413 273.491 152.698 272.655C151.983 271.82 151.458 270.839 151.16 269.78C150.515 267.498 150.692 265.062 151.658 262.897C152.625 260.731 154.321 258.974 156.45 257.93C157.436 257.437 158.52 257.169 159.622 257.145C160.725 257.12 161.819 257.341 162.826 257.791C163.833 258.24 164.728 258.907 165.446 259.744C166.165 260.581 166.688 261.566 166.98 262.63C167.645 264.91 167.464 267.353 166.47 269.51C165.532 271.702 163.83 273.479 161.68 274.51C160.621 275 159.467 275.253 158.3 275.25ZM159.87 258.3C158.874 258.327 157.896 258.565 157 259C155.122 259.929 153.627 261.484 152.773 263.397C151.918 265.31 151.758 267.462 152.32 269.48C152.561 270.389 153.002 271.232 153.611 271.948C154.22 272.664 154.981 273.235 155.839 273.618C156.697 274.002 157.631 274.189 158.57 274.165C159.51 274.141 160.432 273.907 161.27 273.48C163.163 272.574 164.665 271.015 165.5 269.09C166.379 267.181 166.539 265.018 165.95 263C165.699 262.097 165.254 261.259 164.646 260.546C164.038 259.833 163.282 259.261 162.43 258.87C161.629 258.494 160.755 258.299 159.87 258.3Z" fill="#263238"/>
<path d="M174.94 280.35C173.906 280.359 172.883 280.144 171.94 279.72C170.94 279.26 170.052 278.59 169.335 277.754C168.619 276.919 168.092 275.938 167.79 274.88C167.15 272.597 167.33 270.162 168.298 267.997C169.266 265.832 170.962 264.075 173.09 263.03C174.075 262.535 175.159 262.265 176.261 262.24C177.363 262.215 178.458 262.436 179.464 262.885C180.471 263.335 181.366 264.003 182.083 264.841C182.799 265.679 183.321 266.666 183.61 267.73C184.284 270.008 184.106 272.453 183.11 274.61C182.435 276.245 181.308 277.653 179.861 278.669C178.414 279.686 176.707 280.269 174.94 280.35ZM176.53 263.35C175.52 263.357 174.524 263.582 173.61 264.01C171.719 264.923 170.218 266.484 169.38 268.41C168.495 270.314 168.335 272.476 168.93 274.49C169.181 275.394 169.626 276.233 170.234 276.948C170.841 277.663 171.598 278.237 172.45 278.63C175.95 280.2 180.29 278.16 182.11 274.1C182.985 272.189 183.144 270.028 182.56 268.01C182.307 267.108 181.862 266.271 181.254 265.558C180.646 264.845 179.891 264.272 179.04 263.88C178.245 263.549 177.391 263.385 176.53 263.4V263.35Z" fill="#263238"/>
<path d="M167.8 269.92C167.778 269.849 167.741 269.783 167.691 269.728C167.64 269.673 167.579 269.629 167.51 269.6C167.071 269.523 166.618 269.59 166.22 269.79L165.72 268.79C166.399 268.443 167.184 268.361 167.92 268.56C168.151 268.642 168.36 268.774 168.533 268.947C168.706 269.12 168.838 269.329 168.92 269.56L167.8 269.92Z" fill="#263238"/>
<path d="M140.452 259.219L140.11 260.314L153.646 264.544L153.988 263.449L140.452 259.219Z" fill="#263238"/>
<path opacity="0.2" d="M137.28 364.46C137.28 364.46 110.97 384.62 87.88 383.46C88.82 369.72 90.4 351.46 92.68 337.78C95.04 335.18 96.59 333.6 96.59 333.6L110.59 344.07L107.18 348.35C107.18 348.35 128.37 347.27 135.75 348.35L137.28 364.46Z" fill="black"/>
<path d="M140 348.3L161.06 344L161.81 362.78C161.81 362.78 147.52 367.84 139.34 358.37L140 348.3Z" fill="#EBB376"/>
<path d="M175.72 348.36L172.94 362.48L161.81 362.79L161.06 344.01L175.72 348.36Z" fill="#EBB376"/>
<path d="M140 348.3L141.03 362.79L135.79 365.14L133.55 348.3H140Z" fill="#606060"/>
<path opacity="0.6" d="M140 348.3L141.03 362.79L135.79 365.14L133.55 348.3H140Z" fill="white"/>
<path d="M106.55 314.78C100.899 315.778 95.7817 318.738 92.1 323.14C85.75 330.6 63.37 352.76 68.34 370.85C73.31 388.94 121.17 375.48 135.79 365.14L133.55 348.3L100.4 350.73L110.62 344C117.63 324.5 106.55 314.78 106.55 314.78Z" fill="#606060"/>
<path opacity="0.7" d="M106.55 314.78C100.899 315.778 95.7817 318.738 92.1 323.14C85.75 330.6 63.37 352.76 68.34 370.85C73.31 388.94 121.17 375.48 135.79 365.14L133.55 348.3L100.4 350.73L110.62 344C117.63 324.5 106.55 314.78 106.55 314.78Z" fill="white"/>
<path d="M202.56 363.8L208.59 362.79V378.95L203.81 379.73L202.56 363.8Z" fill="#606060"/>
<path opacity="0.6" d="M202.56 363.8L208.59 362.79V378.95L203.81 379.73L202.56 363.8Z" fill="white"/>
<path d="M190.37 378.79C190.353 377.905 190.396 377.019 190.5 376.14L190.68 374.81L189.39 375.57L188.62 376.03C188.367 376.144 188.106 376.241 187.84 376.32C187.384 376.464 186.896 376.464 186.44 376.32C186 376.157 185.612 375.877 185.32 375.51C184.982 375.104 184.715 374.645 184.53 374.15L183.4 371L182.6 374.34C182.52 374.67 182.47 375.01 182.41 375.34C182.35 375.67 182.21 375.96 182.12 376.27C181.929 376.769 181.608 377.207 181.19 377.54C180.723 377.78 180.181 377.826 179.68 377.67C179.05 377.505 178.449 377.242 177.9 376.89L176.16 375.8L176.86 377.57C177.163 378.322 177.404 379.098 177.58 379.89C177.668 380.285 177.721 380.686 177.74 381.09C177.784 381.501 177.693 381.915 177.48 382.27C177.831 381.988 178.072 381.592 178.16 381.15C178.274 380.719 178.335 380.276 178.34 379.83C178.36 379.48 178.36 379.13 178.34 378.78C178.631 378.945 178.931 379.092 179.24 379.22C179.694 379.406 180.182 379.496 180.672 379.484C181.163 379.472 181.646 379.358 182.09 379.15C182.935 378.676 183.595 377.928 183.96 377.03V376.9C184.501 377.516 185.226 377.941 186.028 378.112C186.829 378.283 187.665 378.191 188.41 377.85C188.704 377.717 188.988 377.563 189.26 377.39C189.26 377.39 189.26 377.46 189.26 377.5C189.332 377.972 189.428 378.439 189.55 378.9C189.672 379.365 189.839 379.818 190.05 380.25C190.25 380.685 190.548 381.069 190.92 381.37C190.696 380.979 190.55 380.547 190.49 380.1C190.421 379.667 190.381 379.229 190.37 378.79Z" fill="#606060"/>
<path d="M226.14 356.23C225.361 356.306 224.575 356.221 223.83 355.98C223.063 355.752 222.332 355.415 221.66 354.98C221.022 354.507 220.476 353.92 220.05 353.25C219.599 352.584 219.239 351.861 218.98 351.1L218.32 349.1L217.2 350.87C216.721 351.612 216.142 352.285 215.48 352.87C214.942 353.402 214.234 353.728 213.48 353.79H213.24L212.94 353.73C212.73 353.73 212.53 353.63 212.32 353.58C211.902 353.443 211.497 353.269 211.11 353.06C210.327 352.622 209.604 352.084 208.96 351.46L207.22 349.79L207.58 352.08C207.781 353.302 207.858 354.542 207.81 355.78C207.791 356.362 207.672 356.937 207.46 357.48C207.366 357.717 207.194 357.916 206.972 358.043C206.751 358.17 206.493 358.218 206.24 358.18H205.79L205.93 358.55C206.223 359.303 206.523 360.053 206.83 360.8C206.74 360.13 206.63 359.46 206.51 358.8H206.7C206.899 358.785 207.097 358.752 207.29 358.7C207.474 358.605 207.651 358.498 207.82 358.38C207.95 358.24 208.09 358.09 208.21 357.94C208.594 357.332 208.849 356.651 208.96 355.94C209.086 355.28 209.16 354.611 209.18 353.94C209.5 354.205 209.833 354.452 210.18 354.68C210.65 354.969 211.145 355.213 211.66 355.41C212.21 355.638 212.795 355.77 213.39 355.8C214.627 355.782 215.815 355.313 216.73 354.48C217.123 354.151 217.487 353.789 217.82 353.4C218.016 353.744 218.23 354.078 218.46 354.4C219.058 355.226 219.804 355.935 220.66 356.49C221.513 357.008 222.451 357.374 223.43 357.57C224.059 357.692 224.7 357.739 225.34 357.71C225.26 357.91 225.17 358.11 225.1 358.32C224.924 358.897 224.788 359.485 224.69 360.08C224.584 360.677 224.557 361.286 224.61 361.89C224.641 362.492 224.823 363.077 225.14 363.59C224.968 363.044 224.923 362.466 225.01 361.9C225.085 361.338 225.216 360.786 225.4 360.25C225.784 359.205 226.27 358.2 226.85 357.25L227.48 356.18L226.14 356.23Z" fill="#606060"/>
<path d="M426.2 415.33L75.5 415.33C74.3224 415.33 73.1931 414.862 72.3604 414.03C71.5278 413.197 71.06 412.068 71.06 410.89V400.09L430.64 400.09V410.89C430.64 412.068 430.172 413.197 429.34 414.03C428.507 414.862 427.378 415.33 426.2 415.33Z" fill="#606060"/>
<path opacity="0.2" d="M71.05 407.7L430.64 407.7V400.08L71.05 400.08V407.7Z" fill="black"/>
<path d="M63.52 402.07H438.18C439.319 402.07 440.411 401.618 441.217 400.814C442.023 400.01 442.477 398.919 442.48 397.78C442.48 396.64 442.027 395.546 441.221 394.739C440.414 393.933 439.32 393.48 438.18 393.48H63.52C62.3795 393.48 61.2858 393.933 60.4794 394.739C59.673 395.546 59.22 396.64 59.22 397.78C59.2226 398.919 59.6768 400.01 60.4829 400.814C61.2891 401.618 62.3813 402.07 63.52 402.07Z" fill="#606060"/>
<path d="M412.79 341L401.85 390.62C401.65 391.415 401.194 392.122 400.553 392.631C399.911 393.141 399.119 393.425 398.3 393.44H338.54C338.168 393.43 337.803 393.335 337.475 393.161C337.146 392.986 336.862 392.739 336.645 392.436C336.428 392.134 336.284 391.786 336.224 391.419C336.164 391.052 336.19 390.675 336.3 390.32L347.22 341.08C347.444 340.33 347.919 339.679 348.565 339.237C349.211 338.795 349.989 338.587 350.77 338.65H410.53C412.13 338.69 413.14 339.42 412.79 341Z" fill="#263238"/>
<path opacity="0.4" d="M412.79 341L401.85 390.62C401.65 391.415 401.194 392.122 400.553 392.631C399.911 393.141 399.119 393.425 398.3 393.44H340.57C340.197 393.432 339.832 393.337 339.502 393.164C339.172 392.99 338.886 392.743 338.668 392.44C338.45 392.138 338.305 391.789 338.245 391.421C338.184 391.053 338.21 390.676 338.32 390.32L349.26 341.08C349.479 340.327 349.953 339.673 350.6 339.23C351.248 338.787 352.029 338.582 352.81 338.65H410.53C412.13 338.69 413.14 339.42 412.79 341Z" fill="white"/>
<path d="M403.26 391.91L414.14 342.55C414.5 340.93 413.49 340.2 411.88 340.2H354.16C353.379 340.136 352.6 340.342 351.953 340.785C351.307 341.227 350.832 341.879 350.61 342.63L339.56 392.56L403.26 391.91Z" fill="#606060"/>
<path opacity="0.4" d="M414.14 342.54L408.4 368.62L403.25 391.91L369.15 392.26L339.57 392.55L350.57 342.63C350.789 341.879 351.261 341.226 351.906 340.783C352.551 340.34 353.33 340.134 354.11 340.2H411.9C413.5 340.2 414.5 340.94 414.14 342.54Z" fill="white"/>
<path opacity="0.2" d="M408.4 368.62L403.25 391.91L369.15 392.26H340.83L345.46 370.96C345.609 370.3 345.976 369.71 346.503 369.285C347.029 368.86 347.684 368.626 348.36 368.62H408.4Z" fill="black"/>
<path d="M409.38 371.86C409.159 371.109 408.684 370.457 408.037 370.016C407.39 369.575 406.61 369.371 405.83 369.44H348.11C346.51 369.44 345.5 370.16 345.85 371.78L350.23 391.64H340.48C340.236 391.64 340.002 391.737 339.829 391.909C339.657 392.082 339.56 392.316 339.56 392.56C339.56 392.804 339.657 393.038 339.829 393.211C340.002 393.383 340.236 393.48 340.48 393.48H411.58C411.89 393.474 412.195 393.4 412.473 393.261C412.751 393.123 412.994 392.924 413.186 392.68C413.377 392.436 413.512 392.152 413.58 391.85C413.648 391.547 413.648 391.233 413.58 390.93L409.38 371.86Z" fill="#606060"/>
<path opacity="0.4" d="M409.38 371.86C409.159 371.109 408.684 370.457 408.037 370.016C407.39 369.575 406.61 369.371 405.83 369.44H348.11C346.51 369.44 345.5 370.16 345.85 371.78L350.23 391.64H340.48C340.236 391.64 340.002 391.737 339.829 391.909C339.657 392.082 339.56 392.316 339.56 392.56C339.56 392.804 339.657 393.038 339.829 393.211C340.002 393.383 340.236 393.48 340.48 393.48H411.58C411.89 393.474 412.195 393.4 412.473 393.261C412.751 393.123 412.994 392.924 413.186 392.68C413.377 392.436 413.512 392.152 413.58 391.85C413.648 391.547 413.648 391.233 413.58 390.93L409.38 371.86Z" fill="white"/>
<path d="M338.75 383.91H335.4L334.98 385.72H338.24L338.75 383.91Z" fill="black"/>
<path d="M317.58 393.71H307.93C307.855 393.711 307.78 393.698 307.71 393.669C307.64 393.641 307.577 393.599 307.524 393.546C307.471 393.493 307.429 393.429 307.401 393.36C307.372 393.29 307.359 393.215 307.36 393.14C307.36 392.989 307.42 392.844 307.527 392.737C307.634 392.63 307.779 392.57 307.93 392.57H317.58C319.163 392.573 320.727 392.219 322.155 391.536C323.583 390.852 324.839 389.855 325.83 388.62C326.928 387.249 328.32 386.143 329.905 385.385C331.489 384.626 333.224 384.235 334.98 384.24H336.68C336.83 384.243 336.974 384.303 337.08 384.41C337.187 384.516 337.247 384.66 337.25 384.81C337.25 384.961 337.19 385.106 337.083 385.213C336.976 385.32 336.831 385.38 336.68 385.38H335C333.417 385.377 331.853 385.731 330.425 386.414C328.996 387.098 327.741 388.095 326.75 389.33C325.65 390.703 324.254 391.81 322.666 392.569C321.078 393.327 319.34 393.717 317.58 393.71Z" fill="black"/>
<path d="M156.78 386.65V390.82C156.78 392.7 159.05 393.48 160.93 393.48H307.51C309.37 393.48 311.58 392.7 311.58 390.82V386.65H156.78Z" fill="#263238"/>
<path opacity="0.4" d="M156.78 386.65V390.82C156.78 392.7 159.05 393.48 160.93 393.48H307.51C309.37 393.48 311.58 392.7 311.58 390.82V386.65H156.78Z" fill="white"/>
<path opacity="0.2" d="M206.72 386.65V390.82C206.72 392.7 208.95 393.48 210.83 393.48H307.51C309.37 393.48 311.58 392.7 311.58 390.82V386.65H206.72Z" fill="black"/>
<path d="M336.11 307.33L318.66 386.48C318.347 387.752 317.622 388.885 316.599 389.703C315.575 390.52 314.31 390.976 313 391H217.67C215.14 391 213.5 388.63 214.09 386L231.52 307.45C232.11 304.87 234.63 303.58 237.19 303.58H332.51C335.07 303.59 336.68 304.75 336.11 307.33Z" fill="#263238"/>
<path opacity="0.4" d="M336.11 307.33L318.66 386.48C318.347 387.752 317.622 388.885 316.599 389.703C315.575 390.52 314.31 390.976 313 391H220.91C218.35 391 216.74 388.63 217.31 386L234.76 307.45C235.33 304.87 237.87 303.58 240.43 303.58H332.51C335.07 303.59 336.68 304.75 336.11 307.33Z" fill="white"/>
<path opacity="0.2" d="M289.11 347.56C289.11 354.34 281.85 359.85 276.52 359.85C271.19 359.85 268.04 354.34 269.52 347.56C271 340.78 276.33 335.51 281.52 335.3C280 342.08 283.25 347.56 288.52 347.56C288.716 347.579 288.914 347.579 289.11 347.56Z" fill="black"/>
</svg>
